<svg id="Слой_1" data-name="Слой 1" xmlns="http://www.w3.org/2000/svg" viewBox="0 0 26 24"><defs><style>.cls-1{fill:#bec0c4;}</style></defs><title>Монтажная область 1</title><g id="питер"><g id="Group-11"><path id="horse" class="cls-1" d="M18.41,13.09a15.13,15.13,0,0,0-2.28-3.35q0-.69.09-5.4l-1-1q1-1.12.39-2.06a.86.86,0,0,0-1.18.1q-.45.44,0,1.79h-.84l-.41.48-.17,2.57h-.47a5.87,5.87,0,0,0-1.33-3.78h-.7a.89.89,0,0,1-.33-.85l-1,.85A23.75,23.75,0,0,0,6.8,4.56c-.25.34.2,1.09.63,1.09a1,1,0,0,0,.82-.44.86.86,0,0,1,1.41.23,3.4,3.4,0,0,1-1,1.77q-1.91,2-2,2.9a11.06,11.06,0,0,1-1.87.19L3,12.43v1.43l1.08,1.23.36-1.61-.65-.15-.11-.6L5.13,11.4H6.56l-.63,3.05.29,1,1.11.7.18-1.47H6.8L6.7,14l.89-2.12A9.76,9.76,0,0,0,11,14a6.25,6.25,0,0,0,.72,2.14,8.89,8.89,0,0,1,1,1.89l-1.56,1.38-1.24-.19-.62.94h2.11l2.39-1.89-.12-2.84H14a4.32,4.32,0,0,0,.79,2q.45.44,1.2,1.08l-.87,1.81-1-.14-.7,1,2.05-.08,1.64-2.79c0-.13-.62-1.59-.48-1.95a16.32,16.32,0,0,0,1.51-2.15q.64.08.83,1.26a14.31,14.31,0,0,0,.19,4A4,4,0,0,0,21.45,22l.72-.31a10.82,10.82,0,0,1-1.35-2.8c-.44-1.9-.44-3.72-.61-4.19A3.13,3.13,0,0,0,18.41,13.09Z"/></g></g></svg>