<svg id="Слой_1" data-name="Слой 1" xmlns="http://www.w3.org/2000/svg" viewBox="0 0 26 24"><defs><style>.cls-1{fill:#bec0c4;}</style></defs><title>Монтажная область 1</title><g id="москва"><g id="Group-7"><path id="moscow" class="cls-1" d="M7.86,13.06H6.57v1.29H5.29V13.06H4v7.07H9.14V14.35H7.86ZM11.72,6,13,5,14.3,6l-.65-1.61,1.29-.64-1.56-.09L13,2l-.37,1.65-1.55.09,1.29.64Zm9,7.08v1.29H19.43V13.06H18.14v1.29H16.86v5.79H22V13.06ZM13,6l-1.93,5.14H9.79v9h1.93V17.56a1.29,1.29,0,1,1,2.57,0v2.57h1.93v-9H14.93Zm0,7.71a1.29,1.29,0,1,1,1.29-1.29A1.29,1.29,0,0,1,13,13.71Z"/></g></g></svg>